<svg clip-rule="evenodd" fill-rule="evenodd" height="32" stroke-linejoin="round" stroke-miterlimit="2" width="32" xmlns="http://www.w3.org/2000/svg" xmlns:xlink="http://www.w3.org/1999/xlink"><linearGradient id="a" gradientTransform="matrix(32 -32 32 32 0 32)" gradientUnits="userSpaceOnUse" x1="0" x2="1" y1="0" y2="0"><stop offset="0" stop-color="#1fd59a"/><stop offset="1" stop-color="#5fcef0"/></linearGradient><clipPath id="b"><path clip-rule="evenodd" d="m0 0h32v32h-32z"/></clipPath><path d="m0 0h32v32h-32z" fill="none"/><g clip-path="url(#b)"><path d="m32 .233c0-.129-.104-.233-.233-.233h-10.434l-5.333 5.333-5.333-5.333h-10.434c-.129 0-.233.104-.233.233v10.434l5.333 5.333-5.333 5.333v10.434c0 .129.104.233.233.233h10.434l5.333-5.333 5.333 5.333h10.434c.129 0 .233-.104.233-.233v-10.434l-5.333-5.333 5.333-5.333v-10.434z" fill="url(#a)" fill-rule="nonzero"/></g></svg>